<mxfile host="Electron" agent="Mozilla/5.0 (Windows NT 10.0; Win64; x64) AppleWebKit/537.36 (KHTML, like Gecko) draw.io/26.2.15 Chrome/134.0.6998.205 Electron/35.2.1 Safari/537.36" version="26.2.15">
  <diagram id="C5RBs43oDa-KdzZeNtuy" name="Page-1">
    <mxGraphModel dx="2066" dy="1219" grid="1" gridSize="10" guides="1" tooltips="1" connect="1" arrows="1" fold="1" page="1" pageScale="1" pageWidth="1169" pageHeight="1654" math="0" shadow="0">
      <root>
        <mxCell id="WIyWlLk6GJQsqaUBKTNV-0" />
        <mxCell id="WIyWlLk6GJQsqaUBKTNV-1" parent="WIyWlLk6GJQsqaUBKTNV-0" />
        <mxCell id="RMgAkj6IqEivbKdGbQ9N-0" value="Retrieve details of platform from DB if applicable" style="strokeWidth=2;html=1;shape=mxgraph.flowchart.start_1;whiteSpace=wrap;" vertex="1" parent="WIyWlLk6GJQsqaUBKTNV-1">
          <mxGeometry x="532" y="10" width="116" height="80" as="geometry" />
        </mxCell>
        <mxCell id="RMgAkj6IqEivbKdGbQ9N-2" value="Any field edited?" style="strokeWidth=2;html=1;shape=mxgraph.flowchart.decision;whiteSpace=wrap;" vertex="1" parent="WIyWlLk6GJQsqaUBKTNV-1">
          <mxGeometry x="540" y="120" width="100" height="100" as="geometry" />
        </mxCell>
        <mxCell id="RMgAkj6IqEivbKdGbQ9N-3" style="edgeStyle=orthogonalEdgeStyle;rounded=0;orthogonalLoop=1;jettySize=auto;html=1;exitX=0.5;exitY=1;exitDx=0;exitDy=0;exitPerimeter=0;entryX=0.5;entryY=0;entryDx=0;entryDy=0;entryPerimeter=0;" edge="1" parent="WIyWlLk6GJQsqaUBKTNV-1" source="RMgAkj6IqEivbKdGbQ9N-0" target="RMgAkj6IqEivbKdGbQ9N-2">
          <mxGeometry relative="1" as="geometry" />
        </mxCell>
        <mxCell id="RMgAkj6IqEivbKdGbQ9N-58" value="Yes" style="edgeStyle=orthogonalEdgeStyle;rounded=0;orthogonalLoop=1;jettySize=auto;html=1;" edge="1" parent="WIyWlLk6GJQsqaUBKTNV-1" source="RMgAkj6IqEivbKdGbQ9N-4">
          <mxGeometry x="-0.3442" y="-10" relative="1" as="geometry">
            <mxPoint x="510" y="320" as="targetPoint" />
            <mxPoint as="offset" />
          </mxGeometry>
        </mxCell>
        <mxCell id="RMgAkj6IqEivbKdGbQ9N-4" value="Any checkbox toggled?" style="strokeWidth=2;html=1;shape=mxgraph.flowchart.decision;whiteSpace=wrap;" vertex="1" parent="WIyWlLk6GJQsqaUBKTNV-1">
          <mxGeometry x="540" y="270" width="100" height="100" as="geometry" />
        </mxCell>
        <mxCell id="RMgAkj6IqEivbKdGbQ9N-5" value="No" style="edgeStyle=orthogonalEdgeStyle;rounded=0;orthogonalLoop=1;jettySize=auto;html=1;exitX=0.5;exitY=1;exitDx=0;exitDy=0;exitPerimeter=0;entryX=0.5;entryY=0;entryDx=0;entryDy=0;entryPerimeter=0;" edge="1" parent="WIyWlLk6GJQsqaUBKTNV-1" source="RMgAkj6IqEivbKdGbQ9N-2" target="RMgAkj6IqEivbKdGbQ9N-4">
          <mxGeometry relative="1" as="geometry" />
        </mxCell>
        <mxCell id="RMgAkj6IqEivbKdGbQ9N-6" value="Save updated platform details to list" style="whiteSpace=wrap;html=1;strokeWidth=2;" vertex="1" parent="WIyWlLk6GJQsqaUBKTNV-1">
          <mxGeometry x="528" y="900" width="120" height="60" as="geometry" />
        </mxCell>
        <mxCell id="RMgAkj6IqEivbKdGbQ9N-52" value="Yes" style="edgeStyle=orthogonalEdgeStyle;rounded=0;orthogonalLoop=1;jettySize=auto;html=1;exitX=1;exitY=0.5;exitDx=0;exitDy=0;exitPerimeter=0;entryX=0;entryY=0.5;entryDx=0;entryDy=0;" edge="1" parent="WIyWlLk6GJQsqaUBKTNV-1" source="RMgAkj6IqEivbKdGbQ9N-7" target="RMgAkj6IqEivbKdGbQ9N-51">
          <mxGeometry relative="1" as="geometry" />
        </mxCell>
        <mxCell id="RMgAkj6IqEivbKdGbQ9N-7" value="Add row clicked?" style="strokeWidth=2;html=1;shape=mxgraph.flowchart.decision;whiteSpace=wrap;" vertex="1" parent="WIyWlLk6GJQsqaUBKTNV-1">
          <mxGeometry x="540" y="430" width="100" height="100" as="geometry" />
        </mxCell>
        <mxCell id="RMgAkj6IqEivbKdGbQ9N-61" value="Yes" style="edgeStyle=orthogonalEdgeStyle;rounded=0;orthogonalLoop=1;jettySize=auto;html=1;exitX=0.747;exitY=0.74;exitDx=0;exitDy=0;exitPerimeter=0;" edge="1" parent="WIyWlLk6GJQsqaUBKTNV-1" source="RMgAkj6IqEivbKdGbQ9N-8">
          <mxGeometry x="-0.847" relative="1" as="geometry">
            <mxPoint x="820" y="930" as="targetPoint" />
            <Array as="points">
              <mxPoint x="670" y="674" />
              <mxPoint x="670" y="930" />
            </Array>
            <mxPoint as="offset" />
          </mxGeometry>
        </mxCell>
        <mxCell id="RMgAkj6IqEivbKdGbQ9N-8" value="Remove row clicked?" style="strokeWidth=2;html=1;shape=mxgraph.flowchart.decision;whiteSpace=wrap;" vertex="1" parent="WIyWlLk6GJQsqaUBKTNV-1">
          <mxGeometry x="540" y="600" width="100" height="100" as="geometry" />
        </mxCell>
        <mxCell id="RMgAkj6IqEivbKdGbQ9N-13" value="Yes" style="edgeStyle=orthogonalEdgeStyle;rounded=0;orthogonalLoop=1;jettySize=auto;html=1;exitX=0.5;exitY=1;exitDx=0;exitDy=0;exitPerimeter=0;entryX=0.5;entryY=0;entryDx=0;entryDy=0;" edge="1" parent="WIyWlLk6GJQsqaUBKTNV-1" source="RMgAkj6IqEivbKdGbQ9N-9" target="RMgAkj6IqEivbKdGbQ9N-6">
          <mxGeometry relative="1" as="geometry" />
        </mxCell>
        <mxCell id="RMgAkj6IqEivbKdGbQ9N-9" value="Save button clicked?" style="strokeWidth=2;html=1;shape=mxgraph.flowchart.decision;whiteSpace=wrap;" vertex="1" parent="WIyWlLk6GJQsqaUBKTNV-1">
          <mxGeometry x="540" y="750" width="100" height="100" as="geometry" />
        </mxCell>
        <mxCell id="RMgAkj6IqEivbKdGbQ9N-10" value="No" style="edgeStyle=orthogonalEdgeStyle;rounded=0;orthogonalLoop=1;jettySize=auto;html=1;exitX=0.5;exitY=1;exitDx=0;exitDy=0;exitPerimeter=0;entryX=0.5;entryY=0;entryDx=0;entryDy=0;entryPerimeter=0;" edge="1" parent="WIyWlLk6GJQsqaUBKTNV-1" source="RMgAkj6IqEivbKdGbQ9N-4" target="RMgAkj6IqEivbKdGbQ9N-7">
          <mxGeometry relative="1" as="geometry" />
        </mxCell>
        <mxCell id="RMgAkj6IqEivbKdGbQ9N-11" value="No" style="edgeStyle=orthogonalEdgeStyle;rounded=0;orthogonalLoop=1;jettySize=auto;html=1;exitX=0.5;exitY=1;exitDx=0;exitDy=0;exitPerimeter=0;entryX=0.5;entryY=0;entryDx=0;entryDy=0;entryPerimeter=0;" edge="1" parent="WIyWlLk6GJQsqaUBKTNV-1" source="RMgAkj6IqEivbKdGbQ9N-7" target="RMgAkj6IqEivbKdGbQ9N-8">
          <mxGeometry relative="1" as="geometry" />
        </mxCell>
        <mxCell id="RMgAkj6IqEivbKdGbQ9N-12" value="No" style="edgeStyle=orthogonalEdgeStyle;rounded=0;orthogonalLoop=1;jettySize=auto;html=1;exitX=0.5;exitY=1;exitDx=0;exitDy=0;exitPerimeter=0;entryX=0.5;entryY=0;entryDx=0;entryDy=0;entryPerimeter=0;" edge="1" parent="WIyWlLk6GJQsqaUBKTNV-1" source="RMgAkj6IqEivbKdGbQ9N-8" target="RMgAkj6IqEivbKdGbQ9N-9">
          <mxGeometry relative="1" as="geometry" />
        </mxCell>
        <mxCell id="RMgAkj6IqEivbKdGbQ9N-19" value="No" style="edgeStyle=orthogonalEdgeStyle;rounded=0;orthogonalLoop=1;jettySize=auto;html=1;exitX=0;exitY=0.5;exitDx=0;exitDy=0;exitPerimeter=0;entryX=1;entryY=0.5;entryDx=0;entryDy=0;" edge="1" parent="WIyWlLk6GJQsqaUBKTNV-1" source="RMgAkj6IqEivbKdGbQ9N-15" target="RMgAkj6IqEivbKdGbQ9N-18">
          <mxGeometry relative="1" as="geometry" />
        </mxCell>
        <mxCell id="RMgAkj6IqEivbKdGbQ9N-15" value="All&amp;nbsp;&lt;div&gt;required fields non zero?&lt;/div&gt;" style="strokeWidth=2;html=1;shape=mxgraph.flowchart.decision;whiteSpace=wrap;" vertex="1" parent="WIyWlLk6GJQsqaUBKTNV-1">
          <mxGeometry x="386" y="120" width="100" height="100" as="geometry" />
        </mxCell>
        <mxCell id="RMgAkj6IqEivbKdGbQ9N-17" value="Yes" style="edgeStyle=orthogonalEdgeStyle;rounded=0;orthogonalLoop=1;jettySize=auto;html=1;exitX=0;exitY=0.5;exitDx=0;exitDy=0;exitPerimeter=0;entryX=1;entryY=0.5;entryDx=0;entryDy=0;entryPerimeter=0;" edge="1" parent="WIyWlLk6GJQsqaUBKTNV-1" source="RMgAkj6IqEivbKdGbQ9N-2" target="RMgAkj6IqEivbKdGbQ9N-15">
          <mxGeometry x="0.1111" y="-10" relative="1" as="geometry">
            <mxPoint as="offset" />
          </mxGeometry>
        </mxCell>
        <mxCell id="RMgAkj6IqEivbKdGbQ9N-22" style="edgeStyle=orthogonalEdgeStyle;rounded=0;orthogonalLoop=1;jettySize=auto;html=1;entryX=0;entryY=0.5;entryDx=0;entryDy=0;entryPerimeter=0;" edge="1" parent="WIyWlLk6GJQsqaUBKTNV-1" source="RMgAkj6IqEivbKdGbQ9N-18" target="RMgAkj6IqEivbKdGbQ9N-20">
          <mxGeometry relative="1" as="geometry">
            <mxPoint x="276" y="320" as="targetPoint" />
            <Array as="points">
              <mxPoint x="276" y="320" />
            </Array>
          </mxGeometry>
        </mxCell>
        <mxCell id="RMgAkj6IqEivbKdGbQ9N-18" value="Mark main input not valid" style="whiteSpace=wrap;html=1;strokeWidth=2;" vertex="1" parent="WIyWlLk6GJQsqaUBKTNV-1">
          <mxGeometry x="216" y="140" width="120" height="60" as="geometry" />
        </mxCell>
        <mxCell id="RMgAkj6IqEivbKdGbQ9N-23" value="No" style="edgeStyle=orthogonalEdgeStyle;rounded=0;orthogonalLoop=1;jettySize=auto;html=1;exitX=0.37;exitY=0.89;exitDx=0;exitDy=0;exitPerimeter=0;entryX=0.25;entryY=1;entryDx=0;entryDy=0;" edge="1" parent="WIyWlLk6GJQsqaUBKTNV-1" source="RMgAkj6IqEivbKdGbQ9N-20" target="RMgAkj6IqEivbKdGbQ9N-18">
          <mxGeometry x="-0.4497" relative="1" as="geometry">
            <mxPoint as="offset" />
          </mxGeometry>
        </mxCell>
        <mxCell id="RMgAkj6IqEivbKdGbQ9N-24" value="Yes" style="edgeStyle=orthogonalEdgeStyle;rounded=0;orthogonalLoop=1;jettySize=auto;html=1;exitX=0.5;exitY=1;exitDx=0;exitDy=0;exitPerimeter=0;entryX=0.5;entryY=0;entryDx=0;entryDy=0;entryPerimeter=0;" edge="1" parent="WIyWlLk6GJQsqaUBKTNV-1" source="RMgAkj6IqEivbKdGbQ9N-20" target="RMgAkj6IqEivbKdGbQ9N-25">
          <mxGeometry relative="1" as="geometry">
            <mxPoint x="436" y="400" as="targetPoint" />
          </mxGeometry>
        </mxCell>
        <mxCell id="RMgAkj6IqEivbKdGbQ9N-20" value="Are&amp;nbsp;&lt;div&gt;all ACTIVE optional fields non-zero?&lt;/div&gt;" style="strokeWidth=2;html=1;shape=mxgraph.flowchart.decision;whiteSpace=wrap;" vertex="1" parent="WIyWlLk6GJQsqaUBKTNV-1">
          <mxGeometry x="386" y="270" width="100" height="100" as="geometry" />
        </mxCell>
        <mxCell id="RMgAkj6IqEivbKdGbQ9N-21" value="Yes" style="edgeStyle=orthogonalEdgeStyle;rounded=0;orthogonalLoop=1;jettySize=auto;html=1;exitX=0.5;exitY=1;exitDx=0;exitDy=0;exitPerimeter=0;entryX=0.5;entryY=0;entryDx=0;entryDy=0;entryPerimeter=0;" edge="1" parent="WIyWlLk6GJQsqaUBKTNV-1" source="RMgAkj6IqEivbKdGbQ9N-15" target="RMgAkj6IqEivbKdGbQ9N-20">
          <mxGeometry relative="1" as="geometry" />
        </mxCell>
        <mxCell id="RMgAkj6IqEivbKdGbQ9N-27" value="No" style="edgeStyle=orthogonalEdgeStyle;rounded=0;orthogonalLoop=1;jettySize=auto;html=1;exitX=0;exitY=0.5;exitDx=0;exitDy=0;exitPerimeter=0;entryX=1;entryY=0.5;entryDx=0;entryDy=0;" edge="1" parent="WIyWlLk6GJQsqaUBKTNV-1" source="RMgAkj6IqEivbKdGbQ9N-25" target="RMgAkj6IqEivbKdGbQ9N-26">
          <mxGeometry relative="1" as="geometry" />
        </mxCell>
        <mxCell id="RMgAkj6IqEivbKdGbQ9N-25" value="Each row of&lt;div&gt;fund_plat_fee&lt;/div&gt;&lt;div&gt;bigger than&amp;nbsp;&lt;/div&gt;&lt;div&gt;the previous?&lt;/div&gt;" style="strokeWidth=2;html=1;shape=mxgraph.flowchart.decision;whiteSpace=wrap;fontSize=11;" vertex="1" parent="WIyWlLk6GJQsqaUBKTNV-1">
          <mxGeometry x="378.5" y="420" width="115" height="120" as="geometry" />
        </mxCell>
        <mxCell id="RMgAkj6IqEivbKdGbQ9N-26" value="Mark fund platform fee input not valid" style="whiteSpace=wrap;html=1;strokeWidth=2;" vertex="1" parent="WIyWlLk6GJQsqaUBKTNV-1">
          <mxGeometry x="216" y="450" width="120" height="60" as="geometry" />
        </mxCell>
        <mxCell id="RMgAkj6IqEivbKdGbQ9N-30" value="No" style="edgeStyle=orthogonalEdgeStyle;rounded=0;orthogonalLoop=1;jettySize=auto;html=1;entryX=0.5;entryY=1;entryDx=0;entryDy=0;" edge="1" parent="WIyWlLk6GJQsqaUBKTNV-1" source="RMgAkj6IqEivbKdGbQ9N-29" target="RMgAkj6IqEivbKdGbQ9N-26">
          <mxGeometry relative="1" as="geometry" />
        </mxCell>
        <mxCell id="RMgAkj6IqEivbKdGbQ9N-29" value="Each&amp;nbsp;&lt;div&gt;fee field in fund_plat fee&lt;div&gt;non zero?&lt;/div&gt;&lt;/div&gt;" style="strokeWidth=2;html=1;shape=mxgraph.flowchart.decision;whiteSpace=wrap;fontSize=11;" vertex="1" parent="WIyWlLk6GJQsqaUBKTNV-1">
          <mxGeometry x="386" y="590" width="100" height="100" as="geometry" />
        </mxCell>
        <mxCell id="RMgAkj6IqEivbKdGbQ9N-31" value="Yes" style="edgeStyle=orthogonalEdgeStyle;rounded=0;orthogonalLoop=1;jettySize=auto;html=1;exitX=0.5;exitY=1;exitDx=0;exitDy=0;exitPerimeter=0;entryX=0.5;entryY=0;entryDx=0;entryDy=0;entryPerimeter=0;" edge="1" parent="WIyWlLk6GJQsqaUBKTNV-1" source="RMgAkj6IqEivbKdGbQ9N-25" target="RMgAkj6IqEivbKdGbQ9N-29">
          <mxGeometry relative="1" as="geometry" />
        </mxCell>
        <mxCell id="RMgAkj6IqEivbKdGbQ9N-35" value="Yes" style="edgeStyle=orthogonalEdgeStyle;rounded=0;orthogonalLoop=1;jettySize=auto;html=1;entryX=0.5;entryY=0;entryDx=0;entryDy=0;" edge="1" parent="WIyWlLk6GJQsqaUBKTNV-1" source="RMgAkj6IqEivbKdGbQ9N-32" target="RMgAkj6IqEivbKdGbQ9N-34">
          <mxGeometry relative="1" as="geometry" />
        </mxCell>
        <mxCell id="RMgAkj6IqEivbKdGbQ9N-32" value="Maximum&amp;nbsp;&lt;div&gt;number of rows&lt;/div&gt;&lt;div&gt;(6) reached?&lt;/div&gt;" style="strokeWidth=2;html=1;shape=mxgraph.flowchart.decision;whiteSpace=wrap;fontSize=11;" vertex="1" parent="WIyWlLk6GJQsqaUBKTNV-1">
          <mxGeometry x="386" y="750" width="100" height="100" as="geometry" />
        </mxCell>
        <mxCell id="RMgAkj6IqEivbKdGbQ9N-33" value="Yes" style="edgeStyle=orthogonalEdgeStyle;rounded=0;orthogonalLoop=1;jettySize=auto;html=1;exitX=0.5;exitY=1;exitDx=0;exitDy=0;exitPerimeter=0;entryX=0.5;entryY=0;entryDx=0;entryDy=0;entryPerimeter=0;" edge="1" parent="WIyWlLk6GJQsqaUBKTNV-1" source="RMgAkj6IqEivbKdGbQ9N-29" target="RMgAkj6IqEivbKdGbQ9N-32">
          <mxGeometry relative="1" as="geometry" />
        </mxCell>
        <mxCell id="RMgAkj6IqEivbKdGbQ9N-34" value="Disale add row button" style="whiteSpace=wrap;html=1;strokeWidth=2;" vertex="1" parent="WIyWlLk6GJQsqaUBKTNV-1">
          <mxGeometry x="376" y="900" width="120" height="60" as="geometry" />
        </mxCell>
        <mxCell id="RMgAkj6IqEivbKdGbQ9N-39" value="Yes" style="edgeStyle=orthogonalEdgeStyle;rounded=0;orthogonalLoop=1;jettySize=auto;html=1;exitX=0.5;exitY=1;exitDx=0;exitDy=0;exitPerimeter=0;entryX=0.5;entryY=0;entryDx=0;entryDy=0;" edge="1" parent="WIyWlLk6GJQsqaUBKTNV-1" source="RMgAkj6IqEivbKdGbQ9N-37" target="RMgAkj6IqEivbKdGbQ9N-38">
          <mxGeometry relative="1" as="geometry" />
        </mxCell>
        <mxCell id="RMgAkj6IqEivbKdGbQ9N-66" value="No" style="edgeStyle=orthogonalEdgeStyle;rounded=0;orthogonalLoop=1;jettySize=auto;html=1;entryX=0.75;entryY=0;entryDx=0;entryDy=0;" edge="1" parent="WIyWlLk6GJQsqaUBKTNV-1" source="RMgAkj6IqEivbKdGbQ9N-37" target="RMgAkj6IqEivbKdGbQ9N-50">
          <mxGeometry x="-0.7078" relative="1" as="geometry">
            <mxPoint as="offset" />
          </mxGeometry>
        </mxCell>
        <mxCell id="RMgAkj6IqEivbKdGbQ9N-37" value="Fund&lt;div&gt;platform fee input marked valid?&lt;/div&gt;" style="strokeWidth=2;html=1;shape=mxgraph.flowchart.decision;whiteSpace=wrap;fontSize=11;" vertex="1" parent="WIyWlLk6GJQsqaUBKTNV-1">
          <mxGeometry x="226" y="750" width="100" height="100" as="geometry" />
        </mxCell>
        <mxCell id="RMgAkj6IqEivbKdGbQ9N-43" value="Yes" style="edgeStyle=orthogonalEdgeStyle;rounded=0;orthogonalLoop=1;jettySize=auto;html=1;entryX=0.5;entryY=0;entryDx=0;entryDy=0;entryPerimeter=0;" edge="1" parent="WIyWlLk6GJQsqaUBKTNV-1" source="RMgAkj6IqEivbKdGbQ9N-38" target="RMgAkj6IqEivbKdGbQ9N-42">
          <mxGeometry relative="1" as="geometry">
            <mxPoint x="276.0000000000002" y="1000" as="targetPoint" />
          </mxGeometry>
        </mxCell>
        <mxCell id="RMgAkj6IqEivbKdGbQ9N-38" value="Enable add row button" style="whiteSpace=wrap;html=1;strokeWidth=2;" vertex="1" parent="WIyWlLk6GJQsqaUBKTNV-1">
          <mxGeometry x="216" y="900" width="120" height="60" as="geometry" />
        </mxCell>
        <mxCell id="RMgAkj6IqEivbKdGbQ9N-40" value="No" style="edgeStyle=orthogonalEdgeStyle;rounded=0;orthogonalLoop=1;jettySize=auto;html=1;exitX=0;exitY=0.5;exitDx=0;exitDy=0;exitPerimeter=0;entryX=1;entryY=0.5;entryDx=0;entryDy=0;entryPerimeter=0;" edge="1" parent="WIyWlLk6GJQsqaUBKTNV-1" source="RMgAkj6IqEivbKdGbQ9N-32" target="RMgAkj6IqEivbKdGbQ9N-37">
          <mxGeometry relative="1" as="geometry" />
        </mxCell>
        <mxCell id="RMgAkj6IqEivbKdGbQ9N-46" value="Yes" style="edgeStyle=orthogonalEdgeStyle;rounded=0;orthogonalLoop=1;jettySize=auto;html=1;exitX=0.5;exitY=1;exitDx=0;exitDy=0;exitPerimeter=0;entryX=0.5;entryY=0;entryDx=0;entryDy=0;" edge="1" parent="WIyWlLk6GJQsqaUBKTNV-1" source="RMgAkj6IqEivbKdGbQ9N-42" target="RMgAkj6IqEivbKdGbQ9N-44">
          <mxGeometry relative="1" as="geometry" />
        </mxCell>
        <mxCell id="RMgAkj6IqEivbKdGbQ9N-47" value="No" style="edgeStyle=orthogonalEdgeStyle;rounded=0;orthogonalLoop=1;jettySize=auto;html=1;entryX=0.198;entryY=0.298;entryDx=0;entryDy=0;entryPerimeter=0;" edge="1" parent="WIyWlLk6GJQsqaUBKTNV-1" source="RMgAkj6IqEivbKdGbQ9N-42" target="RMgAkj6IqEivbKdGbQ9N-2">
          <mxGeometry x="-0.9531" relative="1" as="geometry">
            <mxPoint x="536" y="120" as="targetPoint" />
            <Array as="points">
              <mxPoint x="120" y="1060" />
              <mxPoint x="120" y="110" />
              <mxPoint x="560" y="110" />
            </Array>
            <mxPoint as="offset" />
          </mxGeometry>
        </mxCell>
        <mxCell id="RMgAkj6IqEivbKdGbQ9N-42" value="Is main input marked valid?" style="strokeWidth=2;html=1;shape=mxgraph.flowchart.decision;whiteSpace=wrap;fontSize=11;" vertex="1" parent="WIyWlLk6GJQsqaUBKTNV-1">
          <mxGeometry x="226" y="1010" width="100" height="100" as="geometry" />
        </mxCell>
        <mxCell id="RMgAkj6IqEivbKdGbQ9N-44" value="Enable save button" style="whiteSpace=wrap;html=1;strokeWidth=2;" vertex="1" parent="WIyWlLk6GJQsqaUBKTNV-1">
          <mxGeometry x="216" y="1160" width="120" height="60" as="geometry" />
        </mxCell>
        <mxCell id="RMgAkj6IqEivbKdGbQ9N-45" style="edgeStyle=orthogonalEdgeStyle;rounded=0;orthogonalLoop=1;jettySize=auto;html=1;entryX=1;entryY=0.5;entryDx=0;entryDy=0;entryPerimeter=0;" edge="1" parent="WIyWlLk6GJQsqaUBKTNV-1" source="RMgAkj6IqEivbKdGbQ9N-34" target="RMgAkj6IqEivbKdGbQ9N-42">
          <mxGeometry relative="1" as="geometry">
            <Array as="points">
              <mxPoint x="436" y="1060" />
            </Array>
          </mxGeometry>
        </mxCell>
        <mxCell id="RMgAkj6IqEivbKdGbQ9N-50" value="Disable save button" style="whiteSpace=wrap;html=1;strokeWidth=2;" vertex="1" parent="WIyWlLk6GJQsqaUBKTNV-1">
          <mxGeometry x="58" y="900" width="120" height="60" as="geometry" />
        </mxCell>
        <mxCell id="RMgAkj6IqEivbKdGbQ9N-54" style="edgeStyle=orthogonalEdgeStyle;rounded=0;orthogonalLoop=1;jettySize=auto;html=1;exitX=0.5;exitY=1;exitDx=0;exitDy=0;entryX=0.5;entryY=0;entryDx=0;entryDy=0;" edge="1" parent="WIyWlLk6GJQsqaUBKTNV-1" source="RMgAkj6IqEivbKdGbQ9N-51" target="RMgAkj6IqEivbKdGbQ9N-53">
          <mxGeometry relative="1" as="geometry" />
        </mxCell>
        <mxCell id="RMgAkj6IqEivbKdGbQ9N-51" value="Add new row of widgets to grid layout and list of widgets" style="whiteSpace=wrap;html=1;strokeWidth=2;" vertex="1" parent="WIyWlLk6GJQsqaUBKTNV-1">
          <mxGeometry x="690" y="450" width="120" height="60" as="geometry" />
        </mxCell>
        <mxCell id="RMgAkj6IqEivbKdGbQ9N-56" style="edgeStyle=orthogonalEdgeStyle;rounded=0;orthogonalLoop=1;jettySize=auto;html=1;exitX=0.5;exitY=1;exitDx=0;exitDy=0;entryX=0.5;entryY=0;entryDx=0;entryDy=0;" edge="1" parent="WIyWlLk6GJQsqaUBKTNV-1" source="RMgAkj6IqEivbKdGbQ9N-53" target="RMgAkj6IqEivbKdGbQ9N-55">
          <mxGeometry relative="1" as="geometry" />
        </mxCell>
        <mxCell id="RMgAkj6IqEivbKdGbQ9N-53" value="Expand grid layout to accommodate new row" style="whiteSpace=wrap;html=1;strokeWidth=2;" vertex="1" parent="WIyWlLk6GJQsqaUBKTNV-1">
          <mxGeometry x="690" y="560" width="120" height="60" as="geometry" />
        </mxCell>
        <mxCell id="RMgAkj6IqEivbKdGbQ9N-57" style="edgeStyle=orthogonalEdgeStyle;rounded=0;orthogonalLoop=1;jettySize=auto;html=1;" edge="1" parent="WIyWlLk6GJQsqaUBKTNV-1" source="RMgAkj6IqEivbKdGbQ9N-55">
          <mxGeometry relative="1" as="geometry">
            <mxPoint x="510" y="170" as="targetPoint" />
            <Array as="points">
              <mxPoint x="750" y="991" />
              <mxPoint x="751" y="991" />
              <mxPoint x="751" y="1220" />
              <mxPoint x="510" y="1220" />
            </Array>
          </mxGeometry>
        </mxCell>
        <mxCell id="RMgAkj6IqEivbKdGbQ9N-55" value="Set new rows label to reflect the value of the previous box. Also update max fee label" style="whiteSpace=wrap;html=1;strokeWidth=2;" vertex="1" parent="WIyWlLk6GJQsqaUBKTNV-1">
          <mxGeometry x="690" y="670" width="120" height="80" as="geometry" />
        </mxCell>
        <mxCell id="RMgAkj6IqEivbKdGbQ9N-60" value="No" style="edgeStyle=orthogonalEdgeStyle;rounded=0;orthogonalLoop=1;jettySize=auto;html=1;entryX=1;entryY=0.5;entryDx=0;entryDy=0;entryPerimeter=0;" edge="1" parent="WIyWlLk6GJQsqaUBKTNV-1" source="RMgAkj6IqEivbKdGbQ9N-9" target="RMgAkj6IqEivbKdGbQ9N-2">
          <mxGeometry x="-0.9279" relative="1" as="geometry">
            <Array as="points">
              <mxPoint x="880" y="800" />
              <mxPoint x="880" y="170" />
            </Array>
            <mxPoint as="offset" />
          </mxGeometry>
        </mxCell>
        <mxCell id="RMgAkj6IqEivbKdGbQ9N-64" style="edgeStyle=orthogonalEdgeStyle;rounded=0;orthogonalLoop=1;jettySize=auto;html=1;exitX=0.5;exitY=1;exitDx=0;exitDy=0;entryX=0.5;entryY=0;entryDx=0;entryDy=0;" edge="1" parent="WIyWlLk6GJQsqaUBKTNV-1" source="RMgAkj6IqEivbKdGbQ9N-62" target="RMgAkj6IqEivbKdGbQ9N-63">
          <mxGeometry relative="1" as="geometry" />
        </mxCell>
        <mxCell id="RMgAkj6IqEivbKdGbQ9N-62" value="Remove each widget in the last row from the grid layout" style="whiteSpace=wrap;html=1;strokeWidth=2;" vertex="1" parent="WIyWlLk6GJQsqaUBKTNV-1">
          <mxGeometry x="820" y="900" width="120" height="60" as="geometry" />
        </mxCell>
        <mxCell id="RMgAkj6IqEivbKdGbQ9N-65" style="edgeStyle=orthogonalEdgeStyle;rounded=0;orthogonalLoop=1;jettySize=auto;html=1;" edge="1" parent="WIyWlLk6GJQsqaUBKTNV-1" source="RMgAkj6IqEivbKdGbQ9N-63">
          <mxGeometry relative="1" as="geometry">
            <mxPoint x="750" y="1120" as="targetPoint" />
            <Array as="points">
              <mxPoint x="880" y="1095" />
              <mxPoint x="881" y="1095" />
              <mxPoint x="881" y="1120" />
            </Array>
          </mxGeometry>
        </mxCell>
        <mxCell id="RMgAkj6IqEivbKdGbQ9N-63" value="Contract the grid layout to fit smaller number of rows" style="whiteSpace=wrap;html=1;strokeWidth=2;" vertex="1" parent="WIyWlLk6GJQsqaUBKTNV-1">
          <mxGeometry x="820" y="1010" width="120" height="60" as="geometry" />
        </mxCell>
      </root>
    </mxGraphModel>
  </diagram>
</mxfile>
